<svg width="1200" height="560" viewBox="0 0 1200 560" fill="none" xmlns="http://www.w3.org/2000/svg" role="img" aria-labelledby="title desc">
  <title id="title">Software architecture flow</title>
  <desc id="desc">Visual architecture flow from interface to API, services, database, testing, and deployment.</desc>
  <defs>
    <linearGradient id="bg" x1="0" y1="0" x2="1200" y2="560" gradientUnits="userSpaceOnUse">
      <stop stop-color="#050B16"/>
      <stop offset="0.52" stop-color="#0B1728"/>
      <stop offset="1" stop-color="#061B18"/>
    </linearGradient>
    <linearGradient id="line" x1="80" y1="280" x2="1120" y2="280" gradientUnits="userSpaceOnUse">
      <stop stop-color="#38BDF8"/>
      <stop offset="0.5" stop-color="#22C55E"/>
      <stop offset="1" stop-color="#60A5FA"/>
    </linearGradient>
    <filter id="glow" x="-30%" y="-30%" width="160%" height="160%">
      <feGaussianBlur stdDeviation="8" result="blur"/>
      <feBlend in="SourceGraphic" in2="blur" mode="screen"/>
    </filter>
    <pattern id="dots" width="28" height="28" patternUnits="userSpaceOnUse">
      <circle cx="2" cy="2" r="1" fill="#FFFFFF" opacity="0.1"/>
    </pattern>
  </defs>

  <rect width="1200" height="560" rx="32" fill="url(#bg)"/>
  <rect width="1200" height="560" rx="32" fill="url(#dots)"/>
  <path d="M88 284C180 210 252 342 340 266C428 190 492 356 590 280C684 208 760 328 846 258C934 188 1006 344 1112 246" stroke="url(#line)" stroke-width="5" stroke-linecap="round" opacity="0.78" filter="url(#glow)"/>

  <g transform="translate(72 120)">
    <rect x="0" y="0" width="190" height="250" rx="22" fill="#08111F" stroke="#38BDF8" stroke-opacity="0.7"/>
    <rect x="24" y="28" width="142" height="36" rx="10" fill="#0EA5E9" fill-opacity="0.24"/>
    <rect x="24" y="88" width="88" height="12" rx="6" fill="#38BDF8"/>
    <rect x="24" y="116" width="132" height="12" rx="6" fill="#475569"/>
    <rect x="24" y="144" width="112" height="12" rx="6" fill="#22C55E"/>
    <rect x="24" y="172" width="142" height="12" rx="6" fill="#475569"/>
    <rect x="24" y="206" width="52" height="22" rx="8" fill="#22C55E" fill-opacity="0.78"/>
    <rect x="92" y="206" width="52" height="22" rx="8" fill="#38BDF8" fill-opacity="0.78"/>
  </g>

  <g transform="translate(306 86)">
    <rect x="0" y="0" width="208" height="142" rx="20" fill="#08111F" stroke="#38BDF8" stroke-opacity="0.58"/>
    <rect x="26" y="28" width="156" height="20" rx="8" fill="#10233A"/>
    <path d="M42 82H90M42 108H164" stroke="#38BDF8" stroke-width="8" stroke-linecap="round"/>
    <path d="M118 82H166" stroke="#22C55E" stroke-width="8" stroke-linecap="round"/>
  </g>

  <g transform="translate(292 296)">
    <rect x="0" y="0" width="236" height="158" rx="22" fill="#08111F" stroke="#22C55E" stroke-opacity="0.58"/>
    <rect x="30" y="34" width="52" height="52" rx="12" fill="#22C55E" fill-opacity="0.18" stroke="#22C55E"/>
    <rect x="94" y="34" width="52" height="52" rx="12" fill="#38BDF8" fill-opacity="0.18" stroke="#38BDF8"/>
    <rect x="158" y="34" width="52" height="52" rx="12" fill="#60A5FA" fill-opacity="0.18" stroke="#60A5FA"/>
    <path d="M44 116H194" stroke="#38BDF8" stroke-width="7" stroke-linecap="round"/>
    <path d="M70 136H164" stroke="#22C55E" stroke-width="7" stroke-linecap="round"/>
  </g>

  <g transform="translate(586 124)">
    <rect x="0" y="0" width="198" height="264" rx="28" fill="#08111F" stroke="#38BDF8" stroke-opacity="0.62"/>
    <rect x="42" y="34" width="114" height="196" rx="56" fill="#0B1728" stroke="#22C55E" stroke-opacity="0.75"/>
    <ellipse cx="99" cy="58" rx="57" ry="24" fill="#0EA5E9" fill-opacity="0.2" stroke="#38BDF8"/>
    <path d="M42 102C70 126 128 126 156 102" stroke="#38BDF8" stroke-width="4"/>
    <path d="M42 148C70 172 128 172 156 148" stroke="#22C55E" stroke-width="4"/>
    <path d="M42 194C70 218 128 218 156 194" stroke="#38BDF8" stroke-width="4"/>
  </g>

  <g transform="translate(844 92)">
    <rect x="0" y="0" width="248" height="116" rx="22" fill="#08111F" stroke="#22C55E" stroke-opacity="0.58"/>
    <circle cx="54" cy="58" r="24" stroke="#38BDF8" stroke-width="8"/>
    <path d="M108 44L128 64L164 28" stroke="#22C55E" stroke-width="10" stroke-linecap="round" stroke-linejoin="round"/>
    <path d="M108 84H206" stroke="#38BDF8" stroke-width="8" stroke-linecap="round" opacity="0.8"/>
  </g>

  <g transform="translate(824 294)">
    <rect x="0" y="0" width="296" height="166" rx="26" fill="#08111F" stroke="#38BDF8" stroke-opacity="0.58"/>
    <path d="M66 104C42 104 24 86 24 64C24 40 44 22 70 26C82 6 110 0 132 14C148 0 174 2 190 20C216 18 238 38 238 64C238 88 218 104 194 104H66Z" fill="#0EA5E9" fill-opacity="0.28" stroke="#38BDF8" stroke-width="4"/>
    <rect x="38" y="122" width="48" height="24" rx="8" fill="#38BDF8" fill-opacity="0.7"/>
    <rect x="106" y="122" width="48" height="24" rx="8" fill="#22C55E" fill-opacity="0.7"/>
    <rect x="174" y="122" width="48" height="24" rx="8" fill="#60A5FA" fill-opacity="0.7"/>
    <path d="M250 54L270 74L250 94" stroke="#22C55E" stroke-width="8" stroke-linecap="round" stroke-linejoin="round"/>
  </g>

  <g stroke="url(#line)" stroke-width="4" stroke-linecap="round" stroke-dasharray="10 10" opacity="0.9">
    <path d="M262 244H340"/>
    <path d="M514 156C550 156 550 244 586 244"/>
    <path d="M528 376C558 376 558 300 586 300"/>
    <path d="M784 238C812 238 812 150 844 150"/>
    <path d="M784 306C812 306 812 376 824 376"/>
  </g>
</svg>
