<svg width="1200" height="520" viewBox="0 0 1200 520" fill="none" xmlns="http://www.w3.org/2000/svg" role="img" aria-labelledby="title desc">
  <title id="title">Software engineering workspace</title>
  <desc id="desc">Dark software engineering workspace with monitors, dashboards, code panels, data blocks, and cloud delivery visuals.</desc>
  <defs>
    <linearGradient id="bg" x1="0" y1="0" x2="1200" y2="520" gradientUnits="userSpaceOnUse">
      <stop stop-color="#07111F"/>
      <stop offset="0.55" stop-color="#0F2034"/>
      <stop offset="1" stop-color="#0B1F1A"/>
    </linearGradient>
    <linearGradient id="cyan" x1="0" y1="0" x2="1" y2="1">
      <stop stop-color="#38BDF8"/>
      <stop offset="1" stop-color="#22C55E"/>
    </linearGradient>
    <radialGradient id="glow" cx="50%" cy="50%" r="50%">
      <stop stop-color="#38BDF8" stop-opacity="0.35"/>
      <stop offset="1" stop-color="#38BDF8" stop-opacity="0"/>
    </radialGradient>
    <pattern id="grid" width="40" height="40" patternUnits="userSpaceOnUse">
      <path d="M40 0H0V40" stroke="#FFFFFF" stroke-opacity="0.055"/>
    </pattern>
    <filter id="blur" x="-30%" y="-30%" width="160%" height="160%">
      <feGaussianBlur stdDeviation="10"/>
    </filter>
  </defs>

  <rect width="1200" height="520" rx="32" fill="url(#bg)"/>
  <rect width="1200" height="520" rx="32" fill="url(#grid)"/>
  <ellipse cx="610" cy="462" rx="430" ry="48" fill="#020617" opacity="0.55"/>
  <circle cx="160" cy="110" r="120" fill="url(#glow)"/>
  <circle cx="1000" cy="120" r="150" fill="#22C55E" opacity="0.08" filter="url(#blur)"/>

  <g transform="translate(92 88)">
    <rect x="0" y="204" width="1016" height="118" rx="20" fill="#020617" opacity="0.82" stroke="#1E293B"/>
    <rect x="80" y="322" width="820" height="28" rx="14" fill="#020617" opacity="0.88"/>
    <rect x="360" y="252" width="300" height="54" rx="14" fill="#0F172A" stroke="#38BDF8" stroke-opacity="0.32"/>
    <rect x="430" y="306" width="160" height="28" rx="8" fill="#020617"/>

    <g transform="translate(92 0)">
      <rect x="0" y="0" width="278" height="188" rx="18" fill="#08111F" stroke="#38BDF8" stroke-opacity="0.55"/>
      <rect x="16" y="18" width="246" height="24" rx="8" fill="#10233A"/>
      <circle cx="32" cy="30" r="4" fill="#F87171"/>
      <circle cx="48" cy="30" r="4" fill="#FBBF24"/>
      <circle cx="64" cy="30" r="4" fill="#34D399"/>
      <rect x="28" y="62" width="120" height="8" rx="4" fill="#38BDF8" opacity="0.85"/>
      <rect x="28" y="84" width="190" height="8" rx="4" fill="#64748B" opacity="0.7"/>
      <rect x="28" y="106" width="154" height="8" rx="4" fill="#22C55E" opacity="0.85"/>
      <rect x="28" y="128" width="210" height="8" rx="4" fill="#64748B" opacity="0.7"/>
      <rect x="28" y="150" width="136" height="8" rx="4" fill="#38BDF8" opacity="0.75"/>
    </g>

    <g transform="translate(396 -36)">
      <rect x="0" y="0" width="360" height="236" rx="22" fill="#08111F" stroke="#38BDF8" stroke-opacity="0.68"/>
      <rect x="24" y="24" width="312" height="188" rx="14" fill="#0B1728"/>
      <path d="M58 150C82 112 108 132 134 92C166 42 214 70 246 50C276 32 292 58 310 40" stroke="url(#cyan)" stroke-width="4" stroke-linecap="round"/>
      <rect x="54" y="54" width="72" height="54" rx="10" fill="#0EA5E9" fill-opacity="0.16" stroke="#38BDF8"/>
      <rect x="152" y="72" width="72" height="54" rx="10" fill="#22C55E" fill-opacity="0.15" stroke="#22C55E"/>
      <rect x="250" y="104" width="56" height="78" rx="10" fill="#F59E0B" fill-opacity="0.13" stroke="#F59E0B"/>
      <circle cx="92" cy="158" r="14" fill="#38BDF8" opacity="0.7"/>
      <circle cx="190" cy="154" r="14" fill="#22C55E" opacity="0.7"/>
      <circle cx="278" cy="76" r="14" fill="#60A5FA" opacity="0.7"/>
    </g>

    <g transform="translate(790 18)">
      <rect x="0" y="0" width="210" height="170" rx="18" fill="#08111F" stroke="#22C55E" stroke-opacity="0.54"/>
      <rect x="28" y="126" width="28" height="18" rx="4" fill="#38BDF8"/>
      <rect x="70" y="96" width="28" height="48" rx="4" fill="#22C55E"/>
      <rect x="112" y="68" width="28" height="76" rx="4" fill="#38BDF8"/>
      <rect x="154" y="42" width="28" height="102" rx="4" fill="#22C55E"/>
      <circle cx="60" cy="54" r="22" stroke="#38BDF8" stroke-width="8" opacity="0.75"/>
      <circle cx="60" cy="54" r="8" fill="#22C55E"/>
    </g>

    <g transform="translate(120 370)">
      <rect x="0" y="0" width="70" height="48" rx="12" fill="#0B1728" stroke="#38BDF8"/>
      <rect x="140" y="0" width="70" height="48" rx="12" fill="#0B1728" stroke="#22C55E"/>
      <rect x="280" y="0" width="70" height="48" rx="12" fill="#0B1728" stroke="#38BDF8"/>
      <rect x="420" y="0" width="70" height="48" rx="12" fill="#0B1728" stroke="#22C55E"/>
      <rect x="560" y="0" width="70" height="48" rx="12" fill="#0B1728" stroke="#38BDF8"/>
      <rect x="700" y="0" width="70" height="48" rx="12" fill="#0B1728" stroke="#22C55E"/>
      <path d="M70 24H140M210 24H280M350 24H420M490 24H560M630 24H700" stroke="#38BDF8" stroke-width="3" stroke-dasharray="8 8" opacity="0.8"/>
      <path d="M24 27L34 37L50 15" stroke="#22C55E" stroke-width="5" stroke-linecap="round" stroke-linejoin="round"/>
      <path d="M164 14H188M164 25H196M164 36H184" stroke="#38BDF8" stroke-width="4" stroke-linecap="round"/>
      <circle cx="315" cy="24" r="16" stroke="#22C55E" stroke-width="5"/>
      <path d="M443 27L453 37L469 15" stroke="#22C55E" stroke-width="5" stroke-linecap="round" stroke-linejoin="round"/>
      <path d="M584 16L606 24L584 32V16Z" fill="#38BDF8"/>
      <path d="M724 27L734 37L750 15" stroke="#22C55E" stroke-width="5" stroke-linecap="round" stroke-linejoin="round"/>
    </g>
  </g>
</svg>
